<?xml version="1.0" encoding="UTF-8" standalone="no"?>
<svg
   width="24"
   height="24"
   viewBox="0 0 24 24"
   fill="none"
   stroke="currentColor"
   stroke-width="2"
   stroke-linecap="round"
   stroke-linejoin="round"
   class="lucide lucide-folder-icon lucide-folder"
   version="1.1"
   id="svg1"
   sodipodi:docname="cedar.svg"
   inkscape:version="1.4.2 (f4327f4, 2025-05-13)"
   xmlns:inkscape="http://www.inkscape.org/namespaces/inkscape"
   xmlns:sodipodi="http://sodipodi.sourceforge.net/DTD/sodipodi-0.dtd"
   xmlns="http://www.w3.org/2000/svg"
   xmlns:svg="http://www.w3.org/2000/svg">
  <defs
     id="defs1" />
  <sodipodi:namedview
     id="namedview1"
     pagecolor="#ffffff"
     bordercolor="#000000"
     borderopacity="0.25"
     inkscape:showpageshadow="2"
     inkscape:pageopacity="0.0"
     inkscape:pagecheckerboard="0"
     inkscape:deskcolor="#d1d1d1"
     inkscape:zoom="19.032958"
     inkscape:cx="9.1420369"
     inkscape:cy="11.92668"
     inkscape:window-width="1536"
     inkscape:window-height="890"
     inkscape:window-x="-6"
     inkscape:window-y="-6"
     inkscape:window-maximized="1"
     inkscape:current-layer="svg1"
     showgrid="false" />
  <path
     style="fill:none;stroke:none;stroke-width:2.26811"
     d="M 9.1215662,23.840606 C 9.83165,22.864479 10.118423,21.686854 10.35164,20.507073 c 0.198125,-1.002258 0.300619,-2.02235 0.4686,-3.030484 0.08783,-0.527132 0.211201,-1.047662 0.292875,-1.575853 0.1431,-0.925449 0.212228,-1.861962 0.35145,-2.788045 0.168205,-1.11888 0.401154,-2.219324 0.585749,-3.3335325 0.30728,-2.543625 -0.0806,0.2958015 0.292875,-1.6364617 0.07094,-0.3669867 0.02313,-0.524258 0.11715,-0.8485361 0.03021,-0.1042088 0.08949,-0.1980844 0.11715,-0.3030485 0.04426,-0.16791 0.061,-0.4924247 0.11715,-0.6667066 0.126562,-0.392876 0.120487,-0.084779 0.175725,-0.4848774 0.02045,-0.1480869 0.107851,-1.2920541 0.05857,-1.3940229 -0.115008,-0.2380067 -0.11715,-0.5138468 -0.11715,-0.7879259 0,-0.1818291 0,-0.3636582 0,-0.5454872 0,-0.080813 0.05523,-0.2995822 0,-0.2424387 -0.265626,0.2748528 -0.254727,1.019027 -0.292875,1.3940227 -0.108765,1.0691179 -0.148065,2.1415394 -0.2343,3.2123135 -0.0342,0.4247157 -0.09658,0.847148 -0.11715,1.2728035 -0.04767,0.9864634 -0.01882,1.9824448 -0.05857,2.9698748 -0.02772,0.688183 -0.145483,1.3723 -0.175725,2.06073 -0.0033,0.07714 0.0037,1.230376 0,1.272803 -0.01977,0.224951 -0.09738,0.441755 -0.11715,0.666707 -0.07472,0.850472 0,1.752588 0,2.606216 0,0.343455 -0.04387,0.689923 0,1.030364 0.01879,0.145792 0.09705,0.278665 0.11715,0.424268 0.128413,0.930109 -0.149044,-0.0824 0.05858,0.848537 0.02777,0.124503 0.09506,0.237942 0.117149,0.363657 0.01747,0.09939 -0.0097,0.202534 0,0.303048 0.03874,0.400848 0.06886,0.812501 0.11715,1.212194 0.03048,0.252331 0.11715,0.470178 0.11715,0.727317"
     id="path5" />
  <path
     style="fill:#483e37;fill-opacity:1;stroke:none;stroke-width:2.26811"
     d="m 9.6315847,24.258782 c 0.058574,-0.262642 0.1055388,-1.120035 0.1343061,-1.387931 0.049639,-0.462269 0.019296,-0.930689 0.058574,-1.394023 0.1962172,-2.314569 0.5781912,-4.609071 0.8786252,-6.909505 0.08952,-0.685417 0.127864,-1.377906 0.2343,-2.06073 0.08903,-0.571151 0.263606,-1.125723 0.351449,-1.69707 0.04918,-0.31986 0.02637,-0.647592 0.05858,-0.9697554 0.02642,-0.2643213 0.08394,-0.5244262 0.11715,-0.7879262 0.09942,-0.7886957 0.117149,-1.5704736 0.117149,-2.3637776 0,-0.455235 0.01037,-0.8849058 0.05857,-1.3334131 0.02084,-0.1940537 -0.404896,-0.5943767 -0.35145,-0.787926 0.03393,-0.1228602 0.45191,-0.115834 0.4686,-0.2424387 0.05565,-0.4222796 0.07166,-0.8492226 0.117151,-1.2728035 0.01293,-0.120478 0,-0.2424388 0,-0.3636582 V 2.5666049 c 0,0.5923292 0.02858,1.1681208 0.05857,1.7576811 0.01026,0.201753 0.65593,-0.5648608 0.673612,-0.3636582 0.07116,0.8099462 -0.241062,2.6166786 -0.146437,3.4244473 0.127425,1.0877779 -0.06484,2.1571342 0.05857,3.2426189 0.03938,0.346372 0.135166,0.684136 0.175725,1.030364 0.103547,0.883977 0.07821,1.780324 0.11715,2.666827 0.0089,0.20283 0.04826,0.403337 0.05857,0.606096 0.04494,0.883552 0,1.781844 0,2.666827 0,0.848066 -0.01562,1.70112 0.05857,2.545607 0.08973,1.021375 -0.04558,3.188042 -0.04558,4.187637"
     id="path6"
     sodipodi:nodetypes="csssssscscsccscccscccsssc" />
  <path
     style="fill:#483e37;fill-opacity:1;stroke:none;stroke-width:2.26811"
     d="m 11.99174,10.627694 c 0.39573,-0.561723 0.883347,-1.0221542 1.405798,-1.4546331 0.217639,-0.1801594 0.750931,-0.5246374 0.995775,-0.7273159 0.811711,-0.8399085 -0.05158,-0.00542 0.644325,-0.5454872 0.307558,-0.2386821 0.265053,-0.3636583 0.702899,-0.3636583 0.01453,0 0.347712,-0.064477 0.351449,-0.060609 0.148338,0.1534905 -0.522085,1.0698994 -0.644324,1.2121949 -0.359608,0.4186117 -0.773838,0.8350085 -1.171499,1.2121928 -0.281117,0.2666418 -0.588873,0.5295928 -0.820049,0.8485368 -0.05239,0.07228 -0.0664,0.168916 -0.11715,0.242437 -0.215908,0.312771 -0.137931,0.04301 -0.292875,0.363659 -0.07213,0.149279 0.170027,-0.05471 -0.05857,0.181829 -0.03087,0.03194 -0.08628,0.02867 -0.11715,0.06061 -0.02455,0.0254 -0.04083,0.145095 -0.05857,0.181829 -0.08998,0.186206 -0.03303,-0.100247 -0.175725,0.121219 -0.02166,0.03362 0.01747,0.08508 0,0.12122 -0.01952,0.04041 -0.08628,0.02867 -0.117149,0.06061"
     id="path7" />
  <path
     style="fill:#483e37;fill-opacity:1;stroke:none;stroke-width:2.26811"
     d="M 11.552427,10.976199 C 11.122437,10.681113 10.301447,10.233118 9.8244657,10.021596 9.5162477,9.8849142 9.1534676,9.8025623 8.8286914,9.7185481 8.5377789,9.6433 8.7539415,9.66681 8.4186666,9.5367194 8.1780305,9.4433485 7.9049653,9.4189849 7.6571922,9.3548896 7.4992903,9.3140413 7.3394134,9.3332946 7.1885924,9.2942804 7.0864628,9.2678634 6.9978477,9.1994791 6.8957176,9.1730609 c -0.037884,-0.00981 -0.080893,0.015008 -0.1171499,0 -0.021673,-0.009 -0.5857496,-0.3533363 -0.5857496,-0.242439 0,0.020199 0.042329,-0.01119 0.058574,0 0.2558356,0.1764818 0.507712,0.4185425 0.7614745,0.6060975 0.6252261,0.4621029 1.2892275,0.8818666 1.9915487,1.2121936 0.2648573,0.124571 0.5441325,0.268491 0.8200494,0.363658 0.068085,0.02349 0.1722703,0.02852 0.2343003,0.06061 0.224536,0.116168 0.882693,0.585473 1.127568,0.712164"
     id="path8"
     sodipodi:nodetypes="cscsssccscssssc" />
  <path
     style="fill:#483e37;fill-opacity:1;stroke:none;stroke-width:2.26811"
     d="m 12.343189,16.749272 c 0.722823,-0.270264 1.272079,-0.887041 1.932974,-1.272803 0.433566,-0.253072 0.890323,-0.462265 1.347224,-0.666707 0.536176,-0.239914 1.087951,-0.374088 1.640098,-0.545487 0.100716,-0.03126 0.19087,-0.09484 0.292876,-0.12122 0.0055,-0.0014 0.506936,-0.08155 0.468599,-0.121219 -0.01969,-0.02037 -0.554661,0.573928 -0.585749,0.606097 -0.322701,0.333911 -0.629604,0.685588 -0.995775,0.969755 -0.641865,0.498121 -1.324473,0.933858 -1.991548,1.394023 -0.28683,0.197862 -1.007848,0.631084 -1.1715,0.969755 -0.01746,0.03614 0.01747,0.08508 0,0.121219 -0.09036,0.186992 -0.315024,0.288278 -0.410024,0.484878"
     id="path9" />
  <path
     style="fill:#483e37;fill-opacity:1;stroke:none;stroke-width:2.26811"
     d="m 10.644515,17.11293 c -0.449687,-0.269517 -0.9667806,-0.356158 -1.4643738,-0.484878 -0.227642,-0.05889 -0.1998535,-0.0984 -0.4685998,-0.181828 -0.1907191,-0.0592 -0.3904997,-0.08081 -0.5857496,-0.12122 -0.2517851,-0.05211 -0.5110122,-0.138635 -0.7614744,-0.181829 -0.057779,-0.0099 -0.1213395,0.02251 -0.175725,0 -0.051276,-0.02123 -0.067755,-0.09567 -0.1171498,-0.121219 -0.3170128,-0.164013 -0.1320511,-0.0152 -0.3514499,-0.06061 -0.300494,-0.06219 -0.5677263,-0.18183 -0.8786244,-0.18183 -0.3514498,0 -0.7028995,0 -1.0543493,0 -0.0781,0 -0.1561999,0 -0.2342998,0 -0.019524,0 -0.058576,-0.0202 -0.058576,0 0,0.0202 0.042329,-0.01119 0.058576,0 0.04595,0.0317 0.069794,0.09183 0.1171498,0.121219 0.267884,0.166314 0.5867193,0.242841 0.8786245,0.363659 0.474209,0.196273 0.938033,0.398661 1.4057991,0.606096 0.2060489,0.09137 0.4332304,0.109025 0.6443245,0.18183 0.4042921,0.139445 0.8102396,0.337383 1.2300743,0.424268 0.095729,0.01981 0.1971456,-0.01981 0.2928748,0 0.042811,0.0089 0.074794,0.04965 0.1171499,0.06061 0.2025192,0.05238 0.4382344,0.02507 0.6443246,0.06061 0.2209313,0.0381 0.4155753,0.121218 0.6443243,0.121218"
     id="path10" />
  <path
     style="fill:#165016;fill-opacity:1;stroke:none;stroke-width:2.26811"
     d="M 6.1138475,9.0347384 C 6.169073,9.0061642 6.307135,9.0061642 6.2795225,8.9490273 6.2519098,8.8918789 6.0533031,9.0472663 6.1138475,9.0347384 6.1490335,9.0274708 6.6706917,8.8490475 6.69371,8.7775935 6.7071819,8.7357762 6.7037103,8.6667574 6.652291,8.6490211 6.5906551,8.6277606 6.5024003,8.6357549 6.4451972,8.6061655 6.4102699,8.5881004 6.3958448,8.5412419 6.3623601,8.5204544 6.1839761,8.4097106 5.9334196,8.3807995 5.7410789,8.3061662 5.683267,8.2837291 5.6332156,8.2428807 5.5754039,8.2204551 5.3194997,8.1211548 4.9692707,8.1775996 4.70561,8.1775996 c -0.3204847,0 -0.6772683,-0.046824 -0.9940501,0 -0.1255732,0.018561 -0.2522436,0.1077906 -0.3727687,0.1285724 -0.054474,0.00934 -0.111005,-0.00808 -0.165675,0 -0.1561998,0.023095 -0.1228687,0.079182 -0.2899312,0.1285736 -0.1098244,0.032473 -0.2648196,0.00565 -0.3727688,0.042856 -0.047225,0.016288 -0.077032,0.069422 -0.1242562,0.085711 -0.039293,0.013555 -0.083401,-0.00704 -0.1242564,0 C 2.1202471,8.5877451 1.9923718,8.6705031 1.8477161,8.6918847 1.4985168,8.7435075 1.1259427,8.863315 0.77082855,8.863315 c -0.009577,0 -0.24851252,0.00923 -0.24851252,0.042856 0,0.014281 0.0290701,-0.00634 0.0414187,0 0.0445238,0.023037 0.0770316,0.069422 0.12425626,0.085711 C 1.01454,9.1045177 1.389158,9.0984499 1.7234597,9.1633123 c 0.09879,0.019161 0.190302,0.071972 0.2899314,0.085711 0.109481,0.0151 0.2211152,-0.00715 0.3313501,0 0.1110931,0.00715 0.2202869,0.035196 0.33135,0.042856 0.3709273,0.025586 0.7476835,-0.029497 1.1183061,0 0.1855784,-0.069238 0.3624729,0.065489 0.5384439,0.085711 0.1372181,0.015781 0.276692,-0.012932 0.4141875,0 0.4551545,0.042821 0.9084304,0.042855 1.3668189,0.042855 0.4242342,0 0.8869832,0.051219 1.2839813,-0.085711 0.026196,-0.009 0.063313,0.020199 0.082837,0 C 7.5197796,9.2942666 7.4510354,9.0509958 7.439247,9.0347315 7.4207237,9.0091796 7.3782388,9.014463 7.3564099,8.9918759 7.3345799,8.9692888 7.3368208,8.9287519 7.3149908,8.9061648 7.2841194,8.8742221 7.2297847,8.8835085 7.1907346,8.8633092 7.1187295,8.8260601 7.0576353,8.7675504 6.9836408,8.7347357 6.8342745,8.668497 6.7524825,8.7285063 6.610872,8.6918801 6.59193,8.6870301 6.587976,8.6554151 6.569453,8.6490241 6.53016,8.6354701 6.48449,8.6625791 6.4451967,8.6490241 6.3703577,8.6232071 6.3195285,8.5633131 6.238103,8.5633131"
     id="path11" />
  <path
     style="fill:#165016;fill-opacity:1;stroke:none;stroke-width:2.26811"
     d="m 15.308811,7.9204431 c 0.719244,-0.00427 1.434178,0.042856 2.153775,0.042856 0.927607,0 1.848708,-0.01194 2.775057,-0.042856 0.426555,-0.014235 0.856891,0 1.283981,0 0.05908,0 0.481068,0.035623 0.538444,0 0.05919,-0.036753 0.108241,-0.088953 0.165675,-0.1285724 0.175018,-0.1207319 0.372768,-0.1419415 0.372768,-0.3857177 0,-0.052779 0.0061,-0.079326 -0.04142,-0.1285725 -0.07194,-0.074442 -0.488506,-0.112818 -0.579862,-0.1285726 -0.179123,-0.030891 -0.360059,-0.050557 -0.538445,-0.085714 -0.111838,-0.022043 -0.21838,-0.071103 -0.331349,-0.085715 -0.219195,-0.028352 -0.442362,0.016285 -0.6627,0 -0.08377,-0.00619 -0.165675,-0.028572 -0.248513,-0.042858 -0.193287,-0.014286 -0.386324,-0.032845 -0.579863,-0.042858 -0.439223,-0.022724 -0.885425,0 -1.325399,0 -0.243468,0 -0.502704,-0.022842 -0.745538,0 -0.155893,0.00234 -0.302013,0.069822 -0.455606,0.085715 -0.151115,0.015637 -0.304362,-0.014227 -0.455606,0 -0.222076,0.02089 -0.44266,0.057255 -0.6627,0.085715 -0.09815,0.012695 -0.277921,-0.039258 -0.37277,0 -0.04622,0.01913 -0.07704,0.069427 -0.124256,0.085715 -0.03929,0.013552 -0.08283,0 -0.124256,0 -0.05523,0.014286 -0.112375,0.022175 -0.165675,0.042858 -0.222734,0.086426 -0.431058,0.1663497 -0.6627,0.2142876 -0.116667,0.024145 -0.140331,0.085715 -0.248512,0.085715"
     id="path12" />
  <path
     style="fill:#165016;fill-opacity:1;stroke:none;stroke-width:2.26811"
     d="m 1.2264347,16.10623 c 0.2008312,-0.12988 0.3209109,-0.235691 0.5384438,-0.300003 0.3878578,-0.114666 0.3513103,-0.0703 0.7455376,-0.128573 0.6619742,-0.09785 1.3212056,-0.156782 1.9881001,-0.214287 0.5803981,-0.05004 1.1564913,-0.128572 1.7395876,-0.128572 0.352738,0 0.7264487,-0.04532 1.0768876,0 0.2776241,0.03591 0.549748,0.09253 0.828375,0.128572 0.056485,0.0073 0.1093226,0.03453 0.165675,0.04286 0.1325397,0.01959 0.165675,-0.05913 0.165675,0.08571 0,0.02857 0.012348,0.06016 0,0.08571 -0.1653361,0.342159 -0.7166428,0.469174 -1.0354688,0.557148 -0.6230321,0.171913 -0.031083,0.01251 -0.7041188,0.128573 -0.631025,0.108829 -0.1205807,0.09334 -0.8697938,0.128573 -0.5798626,0.02727 -0.2609381,-0.03 -0.8697938,0 -0.494157,0.02435 -0.3163193,0.05528 -0.7869563,0.08571 -0.5362073,0.03468 -0.038586,-0.05234 -0.6212813,0.04286 -0.4851403,0.07926 -0.9591226,0.171431 -1.4496564,0.171431 -0.3270553,0 -0.8604203,0.06226 -1.0354687,-0.300003 -0.058575,-0.121219 0.078267,-0.25882 0.1242562,-0.385718 z"
     id="path15" />
  <path
     style="fill:#165016;fill-opacity:1;stroke:none;stroke-width:2.26811"
     d="m 16.302861,14.563359 c 1.581084,0 -0.850018,-0.0091 2.402288,0.08571 0.37262,0.01084 0.745823,-0.01511 1.118306,0 2.11297,0.182198 0.06443,0.03423 1.65675,0.08571 0.393351,0.01272 0.770209,0.08571 1.159724,0.08571 0.100995,0 0.323733,0.105253 0.414188,0.04286 0.03249,-0.02241 0.04935,-0.06492 0.08283,-0.08571 0.03744,-0.02325 0.08521,-0.02266 0.124256,-0.04286 0.247179,-0.127882 0.504118,-0.314682 0.62128,-0.557147 0.02761,-0.05715 0.08855,-0.03102 0.04142,-0.128573 -0.0061,-0.01278 -0.02803,0.0035 -0.04142,0 -0.134434,-0.03478 -0.231896,-0.107744 -0.372768,-0.128572 -0.185619,-0.02744 -0.594326,-0.0525 -0.786956,-0.08571 -0.125556,-0.02165 -0.246113,-0.07261 -0.372769,-0.08571 -0.151114,-0.01564 -0.303737,0 -0.455606,0 -0.165675,-0.01428 -0.33196,-0.02236 -0.497026,-0.04286 -0.180298,-0.02239 -0.357429,-0.07073 -0.538443,-0.08571 -0.556014,-0.04603 -1.140021,0 -1.698169,0 -0.507947,0 0.124836,0.01174 -0.455606,-0.04286 -0.257107,-0.02419 -0.527953,0 -0.786957,0 -0.107695,0 -0.225494,-0.01825 -0.331349,0 -0.14659,0.02528 -0.314094,0.0369 -0.455607,0.08571 -0.10726,0.037 -0.22179,0.105899 -0.33135,0.128573 -0.04061,0.0084 -0.0834,-0.007 -0.124256,0 -0.180116,0.03107 -0.426779,0.151545 -0.579863,0.257146 -0.06374,0.04396 -0.101128,0.147497 -0.124256,0.171429 -0.051,0.05278 -0.08283,-0.130792 -0.08283,0.08571 0,0.07308 0.05808,0.02863 0.08283,0.04286 0.113858,0.06545 0.220901,0.142858 0.33135,0.214287 z"
     id="path16" />
  <path
     style="fill:#165016;fill-opacity:1;stroke:none;stroke-width:2.26811"
     d="m 11.66396,4.7061291 c -0.3016,-0.1308906 -0.546832,-0.4400279 -0.869793,-0.5142902 -0.05391,-0.012396 -0.111005,0.00809 -0.165675,0 -0.04322,-0.00639 -0.08119,-0.035431 -0.124257,-0.042857 C 10.142751,4.0866411 9.7774311,4.2646816 9.4273477,4.3204115 9.0390277,4.3822282 8.6187663,4.3922832 8.2262039,4.363269 7.8824857,4.3378648 7.5163126,4.2184196 7.1907351,4.1061239 6.7280055,3.9465227 6.2520006,3.675152 5.7410788,3.7632637 5.5583124,3.7947829 5.1321904,4.1361579 4.9955412,4.2775539 4.8158723,4.463464 4.6502782,4.7198633 4.7056099,5.0061318 c 0.042819,0.2215326 0.3254564,0.4461925 0.497025,0.5571478 0.2443267,0.1580086 0.5841843,0.293605 0.8697939,0.3428602 0.1634208,0.028183 0.33135,0 0.497025,0 0.3037375,0 0.6074751,0 0.9112126,0 0.2119927,0 0.5876526,-0.051557 0.7869562,0 0.072129,0.018658 0.1365603,0.061387 0.2070938,0.085714 0.4082549,0.1408122 0.8580034,0.1714301 1.2839813,0.1714301 0.082837,0 0.1715999,0.031834 0.2485123,0 0.102397,-0.042381 0.424372,-0.3770049 0.538444,-0.4714327 0.07518,-0.062235 0.439212,-0.3171904 0.538444,-0.3428601 0.02679,-0.00693 0.05986,0.015849 0.08284,0 0.02569,-0.017719 0.01959,-0.063127 0.04142,-0.085715 0.01952,-0.020203 0.06331,0.020203 0.08283,0 0.05518,-0.057101 0.03344,-0.3492106 0.08283,-0.3857178 0.09057,-0.066945 0.193288,-0.1142865 0.289932,-0.1714301 z"
     id="path17" />
  <path
     style="fill:#165016;fill-opacity:1;stroke:none;stroke-width:2.26811"
     d="M 11.871055,4.2346964 C 11.690971,3.7099717 11.535924,3.1437561 11.208354,2.6918256 11.106331,2.5510692 10.659419,2.2421048 10.752748,2.0489629 c 0.179415,-0.3712953 1.046183,-0.3803233 1.408238,-0.3428603 0.183162,0.018952 0.276193,0.071451 0.455605,0.1285726 0.594024,0.1891256 1.158496,0.2571452 1.781008,0.2571452 0.110448,0 0.222579,0.019861 0.331349,0 0.128984,-0.023553 0.244601,-0.1006523 0.372768,-0.1285726 0.371431,-0.080912 0.783449,-0.042858 1.159726,-0.042858 0.248512,0 0.498727,-0.030045 0.745538,0 0.239464,0.029151 0.465953,0.1325187 0.704119,0.17143 0.358486,0.05857 0.755218,0.1087989 1.118306,0.1285726 0.452016,0.024616 0.913766,0 1.366819,0 0.06426,0 0.46672,-0.049477 0.538443,0 0.04264,0.029415 -0.03533,0.1588199 -0.04142,0.1714301 -0.139634,0.2889706 -0.272947,0.5237719 -0.579862,0.6428627 -0.174329,0.067644 -0.362672,0.074009 -0.538444,0.1285726 -0.05914,0.018358 -0.107104,0.065512 -0.165674,0.085715 -0.162011,0.05588 -0.327422,0.1079256 -0.497026,0.1285725 -0.137117,0.016691 -0.276883,-0.014955 -0.414187,0 -0.126588,0.013788 -0.247214,0.064062 -0.372769,0.085715 -0.809869,0.139667 0.04352,-0.06483 -0.704119,0.1285727 -0.276125,0.07143 -0.548082,0.163106 -0.828375,0.2142876 -0.454152,0.082929 -0.910282,0.015069 -1.366818,0.042858 -0.138512,0.00843 -0.275707,0.033901 -0.414188,0.042858 -0.254285,0.016444 -0.495136,0.02094 -0.745538,0.085715 -0.0975,0.025224 -0.191041,0.067111 -0.289931,0.085715 -0.202004,0.038004 -0.419683,0.00809 -0.621282,0.042858 -0.03045,0.00525 -0.05256,0.036593 -0.08283,0.042858 -0.251687,0.052087 -0.532291,-0.035135 -0.786956,0 -0.139562,0.019254 -0.276125,0.057144 -0.414188,0.085715 z"
     id="path18" />
  <path
     style="fill:#165016;fill-opacity:1;stroke:none;stroke-width:2.26811"
     d="m 18.332379,14.477645 c 0.27247,0.137966 0.534271,0.298768 0.828375,0.385717 0.200421,0.05925 0.2377,0.01723 0.414188,0.08571 0.43318,0.168086 -0.09392,0.01856 0.33135,0.128572 0.09471,0.0245 0.197316,0.01096 0.289932,0.04286 0.04722,0.01629 0.07597,0.07322 0.124256,0.08571 0.142893,0.03696 0.561653,0.03686 0.704119,0 0.0599,-0.01549 0.105777,-0.07022 0.165675,-0.08571 0.05358,-0.01386 0.112098,0.01385 0.165675,0 0.405441,-0.104884 -0.03206,-0.08571 0.28993,-0.08571 0.07859,0 0.211187,-0.02037 0.289932,0 0.140592,0.03637 0.521472,0.188992 0.6627,0.04286 0.08134,-0.08417 0.08276,-0.17125 0.124257,-0.257144 0.01746,-0.03614 0.06538,-0.04957 0.08283,-0.08571 0.03207,-0.06636 -0.02318,-0.06173 0.04142,-0.128572"
     id="path19" />
  <path
     style="fill:#165016;fill-opacity:1;stroke:none;stroke-width:2.26811"
     d="m 6.4866163,16.27766 c -0.055225,0.04285 -0.1104498,0.08571 -0.165675,0.128572 -0.041419,0.05715 -0.071843,0.124945 -0.1242563,0.171431 -0.1193123,0.105818 -0.5832719,0.203362 -0.6212812,0.214288 -0.284702,0.08183 -0.5734446,0.149526 -0.8697939,0.171429 -0.096398,0.0072 -0.1942588,-0.01414 -0.2899312,0 -0.099501,0.01471 -0.1904305,0.071 -0.2899313,0.08571 -0.2050124,0.0303 -0.4144219,-0.01015 -0.6212813,0 -0.223399,0.01096 -0.8490594,0.112509 -1.1183063,0.04286 -0.2225176,-0.05756 -0.3089478,-0.206561 -0.4556063,-0.257145 -0.026196,-0.009 -0.056642,0.009 -0.082837,0 -0.1164975,-0.04018 -0.1387306,-0.272122 -0.2070937,-0.34286"
     id="path20" />
  <path
     style="fill:#165016;fill-opacity:1;stroke:none;stroke-width:2.26811"
     d="m 6.9422225,9.3347411 c -0.7086034,0.552711 -1.6360442,0.4928632 -2.4437063,0.7714359 -0.058574,0.0202 -0.1078633,0.06328 -0.165675,0.08571 -0.1588665,0.06165 -0.3381586,0.06693 -0.4970251,0.128572 -0.3330313,0.129226 0.019783,0.07306 -0.4556063,0.171431 C 2.9229556,10.58652 2.194267,10.621545 1.8062972,10.320459 1.7162112,10.250549 1.6704642,10.075293 1.7648782,9.9776 1.8000772,9.941182 1.8539352,9.928308 1.8891344,9.891889 1.9516444,9.827208 2.0017675,9.7507806 2.0548094,9.677602 2.1346054,9.5675157 2.2687072,9.266935 2.3861595,9.206169 2.5321845,9.130621 2.6613617,9.120458 2.8417658,9.120458"
     id="path21" />
  <path
     style="fill:#165016;fill-opacity:1;stroke:none;stroke-width:2.26811"
     d="m 15.731681,7.8074694 c 0.314198,0.066377 2.543047,0.044598 2.807793,0.1986895 0.08863,0.051588 0.625116,0.2282926 0.704118,0.2571449 0.55033,0.2009804 0.924027,0.2571448 1.491075,0.2571448 0.124256,0 0.251471,0.027894 0.372769,0 0.06027,-0.013855 0.107862,-0.063285 0.165675,-0.085711 0.106602,-0.041367 0.223343,-0.048462 0.33135,-0.085711 0.165675,-0.057148 -0.0084,-0.041125 0.207093,-0.085711 0.277544,-0.057437 0.662701,-0.2066284 0.662701,-0.5571481"
     id="path22"
     sodipodi:nodetypes="cssssccsc" />
  <path
     style="fill:#165016;fill-opacity:1;stroke:none;stroke-width:2.26811"
     d="m 15.24265,7.7790381 c 0.265232,0.3666292 0.405844,1.1082922 0.907912,1.2121941 0.463897,0.096001 1.160624,-0.2124966 1.581524,-0.3939631 0.275808,-0.1189123 0.6148,-0.1750399 0.907912,-0.242439 0.116996,-0.026901 0.236213,-0.056848 0.351449,-0.090914 0.05055,-0.014939 0.09488,-0.049938 0.146437,-0.060609 0.08453,-0.017488 0.178501,0.014674 0.263587,0 0.194249,-0.0335 0.02628,-0.030305 0.117151,-0.030305 0.01952,0 0.04984,0.018065 0.05857,0 0.03905,-0.080808 -0.05857,-0.060609 0.05857,-0.060609"
     id="path23" />
  <path
     style="fill:#165016;fill-opacity:1;stroke:none;stroke-width:2.26811"
     d="m 18.522848,14.415799 c 0.0047,0.276109 -0.02929,0.54209 -0.02929,0.818231 0,0.04918 -0.01492,0.135514 0,0.181829 0.0043,0.01356 0.02311,0.01752 0.02929,0.03031 0.02547,0.05271 -0.01482,0.136924 -0.02929,0.181829 -0.0031,0.0096 0.0069,0.02316 0,0.0303 -0.127931,0.132376 -0.624549,-0.07727 -0.732187,-0.151524 -0.03446,-0.02378 -0.05416,-0.06601 -0.08786,-0.09091 -0.03553,-0.02625 -0.0781,-0.04041 -0.117149,-0.06061 -0.05857,-0.06061 -0.111612,-0.12755 -0.175725,-0.181828 -0.137738,-0.11661 -0.326845,-0.162735 -0.468599,-0.272744 C 16.7771,14.79596 16.671236,14.385499 16.502013,14.385499"
     id="path24" />
  <path
     style="fill:#008033;fill-opacity:1;stroke:none;stroke-width:2.26811"
     d="m 18.317835,15.17342 c 0.722425,0 1.444849,0 2.167274,0 0.370975,0 0.741949,0 1.112924,0 0.286966,0 1.128149,0.105472 1.347224,-0.121219 0.102812,-0.106383 0.229508,-0.546726 0,-0.606097 -0.05682,-0.0147 -0.117947,0.0099 -0.175725,0 -0.336671,-0.05806 -0.645068,-0.212199 -0.995774,-0.242439 -0.116746,-0.01004 -0.235016,0.01338 -0.35145,0 -0.06136,-0.007 -0.11715,-0.04041 -0.175725,-0.06061 -0.175725,-0.0202 -0.350979,-0.04542 -0.527175,-0.06061 -0.499662,-0.04309 -1.021306,0 -1.522948,0 -0.146807,0 -0.472587,-0.07806 -0.585751,0 -0.03632,0.02506 -0.0277,0.08928 -0.05857,0.12122 -0.066,0.06829 -0.175725,-0.093 -0.175725,0.06061"
     id="path27" />
  <path
     style="fill:#008033;fill-opacity:1;stroke:none;stroke-width:2.26811"
     d="m 18.49356,7.0517219 c 0.567409,-0.026915 1.132341,-0.067946 1.698673,-0.1212193 0.246457,-0.023184 0.573889,-0.036387 0.820051,0 0.140715,0.0208 0.269814,0.097039 0.410024,0.1212193 0.03852,0.00664 0.08089,-0.015007 0.117151,0 0.06536,0.027054 0.108943,0.098185 0.175724,0.1212194 0.618794,0.2134295 -0.06154,-0.1434691 0.2343,0.060609 0.04304,0.02969 0.347011,0.1864218 0.234299,0.3030484 -0.02762,0.028572 -0.08089,-0.015007 -0.117149,0 -0.08107,0.033555 -0.151463,0.092648 -0.2343,0.1212194 -0.166464,0.057416 -0.774621,0 -0.937199,0 -0.416119,0 -0.880575,0.060322 -1.28865,0 -0.06113,-0.00903 -0.114601,-0.051574 -0.175724,-0.060609 -0.401825,-0.059398 -0.82825,0.059398 -1.230075,0 -0.256738,-0.037951 -0.508858,-0.077654 -0.761474,-0.1212194 -0.132981,-0.022933 -0.277044,0.022933 -0.410024,0 -0.165483,-0.028538 -0.211484,-0.060609 -0.351451,-0.060609 -0.26665,0 -0.0033,0.028572 -0.175724,-0.06061 -0.09371,-0.048487 -0.25773,0.048487 -0.35145,0 -0.09214,-0.047671 -0.06641,-0.060609 -0.175725,-0.060609 -0.11715,0 -0.2343,0 -0.35145,0 -0.03905,0 -0.11715,0.040407 -0.11715,0 0,-0.028572 0.04622,-0.035054 0.05857,-0.060609 0.0087,-0.018071 -0.01747,-0.051574 0,-0.060609 0.08701,-0.045017 0.163547,0.0063 0.410025,-0.1212194 0.271268,-0.1403455 1.652918,-0.2773908 1.991549,-0.1818291 0.178703,0.05043 0.351449,0.1212194 0.527174,0.1818291 z"
     id="path28" />
  <path
     style="fill:#008033;fill-opacity:1;stroke:none;stroke-width:2.26811"
     d="m 11.347415,1.5362402 c 0.11715,0.040407 0.232313,0.0876 0.351449,0.1212194 0.444919,0.1255563 0.148752,-0.023706 0.58575,0.1818291 0.195447,0.091925 0.430572,0.2427272 0.644325,0.3030485 0.462741,0.130586 0.220358,0.016741 0.644324,0.060609 0.406008,0.042011 0.831987,0.099446 1.230075,0.181829 0.102823,0.021279 0.412412,0.1624495 0.468599,0.1818291 0.386452,0.1332918 0.790674,0.2060366 1.171499,0.3636582 0.148847,0.061607 0.307367,0.1579957 0.4686,0.181829 0.166939,0.024677 0.365819,0.00496 0.527175,0.06061 0.08283,0.028572 0.149588,0.099306 0.234299,0.1212193 0.28561,0.073882 1.187507,0 1.52295,0 0.355075,0 0.869924,0.086815 1.171499,-0.1212193 0.198865,-0.1371819 0.05225,-0.082743 0.175725,-0.2424388 0.02401,-0.03106 0.277819,-0.3342059 0.2343,-0.4242678 -0.1118,-0.2313672 -0.944047,-0.4242678 -1.1715,-0.4242678 -0.241066,0 -0.468641,-0.020211 -0.702899,-0.060609 -0.616838,-0.1063775 0.443797,-0.02681 -0.4686,-0.1212194 -0.09714,-0.010048 -0.195847,0.011155 -0.292875,0 -0.160023,-0.018398 -0.308577,-0.1028221 -0.4686,-0.12122 -0.244861,-0.028152 -0.513833,0 -0.761474,0 -0.527174,0 -1.054349,0 -1.581524,0 -0.181483,0 -0.408672,0.036646 -0.58575,0 -0.06055,-0.012529 -0.114601,-0.051574 -0.175724,-0.060609 -0.07732,-0.011432 -0.160208,0.025555 -0.2343,0 -0.05239,-0.018071 -0.06588,-0.099997 -0.117151,-0.1212194 -0.08135,-0.033672 -0.206096,0.022447 -0.292874,0 -0.797962,-0.2064207 -1.745634,-0.1681796 -2.577298,-0.06061 z"
     id="path29" />
  <path
     style="fill:#008033;fill-opacity:1;stroke:none;stroke-width:2.26811"
     d="M 8.5358166,4.506115 C 8.0016793,4.4647439 7.5447392,4.7305424 7.0128675,4.8091635 c -0.096643,0.014286 -0.1965781,-0.016607 -0.2928748,0 -0.14021,0.02418 -0.2701734,0.094909 -0.4100247,0.1212194 -0.1648977,0.031023 -1.3713403,0.032088 -1.464374,0 C 4.7041043,4.8815813 4.578792,4.7979531 4.4355693,4.7485537 4.3467744,4.7179273 4.2113053,4.7589359 4.1426945,4.6879445 4.0888124,4.6321908 4.1533971,4.313207 4.2012689,4.2636767 c 0.030871,-0.031944 0.0781,-0.040407 0.11715,-0.060609 C 4.4202497,4.1503835 4.5055877,4.0649889 4.6112941,4.0212375 4.7432715,3.9666127 4.8893415,3.9546429 5.0213189,3.9000182 5.3104552,3.7803461 5.0758472,3.769395 5.3727686,3.718189 c 0.115556,-0.019928 0.2354773,0.017143 0.3514498,0 0.079694,-0.01178 0.1544179,-0.050278 0.2342999,-0.060609 0.258652,-0.033455 0.5615278,0 0.8200494,0 0.5857497,0 1.1714993,0 1.7572489,0 0.2697725,0 1.3530113,-0.058613 1.5229494,0 0.190567,0.065729 0.289045,0.5872145 0.05857,0.6667067 C 9.8110523,4.4299292 8.8775444,4.5061155 8.5358166,4.506115 Z"
     id="path30" />
  <path
     style="fill:#008033;fill-opacity:1;stroke:none;stroke-width:2.26811"
     d="M 6.8957176,8.9912322 C 6.3075462,8.9093164 5.7694876,9.1490526 5.1970437,9.2336712 2.6785026,9.6059609 6.4419651,8.9595733 3.9083946,9.4154999 3.4971706,9.4895022 3.0920554,9.6008574 2.6783204,9.657939 2.3913692,9.6975299 2.0879457,9.6812644 1.799696,9.7185481 1.5716533,9.7480452 0.96606046,9.8705106 0.74534664,9.7791573 0.63771352,9.7346095 0.48841854,9.5494631 0.39389687,9.4761091 0.30317104,9.4057014 0.20932553,9.4063463 0.15959703,9.3548896 0.00556359,9.1955062 0.8271897,8.7852222 0.92107153,8.7487932 1.5985399,8.4859173 2.3308313,8.622596 3.0297702,8.5669645 3.167426,8.5560055 3.3020381,8.5158608 3.4397949,8.5063553 c 0.4848741,-0.033442 0.9804759,0.04552 1.464374,0 0.2457274,-0.023118 1.2140349,-0.1469547 1.4643741,-0.060609 0.06492,0.022391 0.3545884,0.1212195 0.4100247,0.1212195"
     id="path31" />
  <path
     style="fill:#008033;fill-opacity:1;stroke:none;stroke-width:2.26811"
     d="m 7.5986171,15.29464 c -0.043766,0.01131 -0.3500015,0.08396 -0.4100247,0.121219 -0.047355,0.02939 -0.067755,0.09567 -0.1171498,0.121219 -0.072005,0.03725 -0.1622954,0.02336 -0.2342999,0.06061 -0.087319,0.04517 -0.1428908,0.146359 -0.2342999,0.181829 -0.073128,0.02838 -0.1580597,-0.01753 -0.2342998,0 -0.1026413,0.0236 -0.1921639,0.08996 -0.2928749,0.121219 -0.3133917,0.09728 -0.4653832,0.04783 -0.8200494,0.12122 -0.1210888,0.02506 -0.2292041,0.103153 -0.3514498,0.121219 -0.15463,0.02285 -0.3127457,-0.01073 -0.4685996,0 -0.4117799,0.0284 -0.8196561,0.146439 -1.2300743,0.181829 -0.3299937,0.02846 -0.6668114,0.02278 -0.9957743,0.06061 -0.1364566,0.01569 -1.1025113,0.131994 -1.1714993,0.06061 -0.00959,-0.0099 -0.0585749,-0.239498 -0.0585749,-0.303048"
     id="path32" />
  <path
     style="fill:#918a6f;fill-opacity:1;stroke:none;stroke-width:2.26811"
     d="m 12.284614,10.324645 c 0.0145,0.342772 -0.01506,0.687618 0,1.030365 0.04894,1.114102 0.05858,2.217992 0.05858,3.333532 0,0.699799 -0.03755,1.422 0,2.12134 0.0077,0.142638 0.03905,0.282844 0.05857,0.424268 0.01952,0.181828 0.04928,0.362792 0.05857,0.545487 0.02873,0.564909 -0.02102,1.131799 0,1.697071 0.01342,0.361148 0.09093,0.556477 0.11715,0.909146 0.009,0.120861 -0.0097,0.242857 0,0.363657 0.0412,0.511593 0.153742,1.015101 0.2343,1.515243 0.02753,0.170885 0.04435,1.331702 0,1.515242 -0.0067,0.02772 -0.04622,0.03506 -0.05857,0.06061 -0.03319,0.06869 0.05312,0.308687 0,0.363658 -0.05628,0.05823 -1.753673,-0.121219 -1.874398,-0.121219"
     id="path33" />
</svg>
